<svg width="193" height="194" viewBox="0 0 193 194" fill="none" xmlns="http://www.w3.org/2000/svg">
<rect y="1.04581" width="192" height="192" transform="rotate(-0.267588 0 1.04581)" fill="url(#paint0_linear_102_5)"/>
<path d="M142.741 44.8247C142.812 44.0887 142.442 43.6491 142.148 43.724C141.854 43.799 141.931 44.4607 142.741 44.8247Z" fill="#F47D20"/>
<path fill-rule="evenodd" clip-rule="evenodd" d="M50.3856 21.7894C65.3201 22.0485 90.7704 26.7502 97.3509 28.6321C99.5639 29.9459 104.217 33.823 108.953 39.9066C113.689 45.9903 116.347 48.0376 119.953 48.2415C122.254 48.3716 124.28 47.1242 126.15 45.972C127.21 45.3191 128.221 44.6969 129.204 44.373C129.761 44.1893 130.331 43.9683 130.927 43.7374C133.233 42.8429 135.926 41.799 139.787 42.1902C141.33 41.9623 143.291 42.2238 145.456 43.3408C147.152 44.2156 149.223 46.56 148.637 47.0776C148.405 47.2825 148.033 47.1309 147.591 46.9507C146.917 46.6756 146.079 46.3339 145.327 47.0931C144.927 47.497 144.998 48.5878 145.09 50.0067C145.218 51.9631 145.386 54.5434 144.416 56.8077C140.981 65.5469 143.836 67.2795 147.469 69.4841C147.911 69.7522 148.364 70.0273 148.819 70.3228C149.186 70.5613 149.712 70.8756 150.352 71.2588L150.352 71.259C153.7 73.2625 160.196 77.1497 163.733 81.9497C167.191 86.6416 174.391 103.94 177.111 111.092C182.026 124.016 185.543 136.715 188.089 146.351C189.662 152.302 193.487 168.067 192.532 168.326C190.387 168.905 189.387 167.809 188.806 167.172C188.531 166.87 188.349 166.672 188.185 166.801C188.05 166.907 188.181 167.412 188.363 168.113C188.577 168.936 188.862 170.031 188.867 171.064C188.875 172.771 187.481 173.646 186.296 171.959C185.008 170.126 181.412 165.803 180.9 166.32C180.028 167.2 178.572 165.228 177.423 163.673C176.923 162.996 176.482 162.398 176.172 162.149C174.991 161.198 171.73 158.197 168.783 155.195C164.794 151.13 158.776 144.39 152.569 137.439C142.562 126.231 132.064 114.475 128.786 112.494C123.106 109.064 112.123 104.268 111.02 104.485C108.911 104.901 107.792 106.186 105.649 108.646C103.909 110.644 101.493 113.417 97.3228 117.129C89.7575 123.864 82.9847 132.092 80.2653 135.395C79.7435 136.029 79.3709 136.482 79.1706 136.708C78.9977 136.903 78.7937 137.149 78.5634 137.426L78.5632 137.427C77.1365 139.146 74.6977 142.086 72.3527 141.742C69.9235 141.385 65.0776 137.289 64.8893 134.568C64.701 131.847 69.9177 124.392 74.8167 118.043C79.7158 111.694 90.0001 92.8136 92.1846 88.0218C90.4352 85.3962 78.3985 73.5987 70.9327 66.2812L70.9317 66.2803C68.597 63.992 66.7094 62.1419 65.7234 61.1476C49.083 54.4217 36.425 48.1193 27.4553 43.6534C23.2355 41.5524 19.8319 39.8577 17.2141 38.7167C9.96677 35.9411 7.35306 34.5521 4.49985 33.0358L4.49835 33.035C4.36369 32.9635 4.2285 32.8916 4.09226 32.8194C3.37996 32.4414 2.72702 32.1508 2.16291 31.8998C0.655642 31.229 -0.217475 30.8405 0.105844 29.8219C0.522271 28.51 2.64353 28.4281 4.44226 28.3586C5.77492 28.3071 6.93053 28.2625 7.08458 27.7295C7.21118 27.2915 6.97991 27.1533 6.69445 26.9827C6.32698 26.7631 5.86972 26.4898 5.9705 25.4543C6.32148 21.848 33.6854 21.4995 50.3856 21.7894ZM109.149 50.4253C107.599 46.1364 99.4695 35.9785 95.5985 31.4357C91.3233 29.6166 76.8224 27.6981 69.9805 27.5829C58.798 27.3947 44.8275 28.8038 39.6813 29.4899C39.0387 29.5756 38.3136 29.6651 37.5366 29.761L37.5362 29.761L37.536 29.7611C32.09 30.4332 24.0949 31.4199 24.1051 33.6087C24.1122 35.1184 28.6283 37.4503 32.9325 39.6727C34.2909 40.3741 35.6281 41.0646 36.7959 41.7149C42.0202 44.6242 47.4008 47.0691 52.5951 49.4292C59.1338 52.4002 65.377 55.2369 70.6407 58.6971C74.5477 62.1251 80.3858 68.4862 85.3048 73.846L85.3051 73.8464C90.1508 79.1263 94.1046 83.4343 94.4416 83.0089C94.6836 82.7035 95.8235 80.6446 97.3768 77.8391L97.3779 77.8371L97.3782 77.8366L97.3784 77.8362L97.3785 77.8359C99.5804 73.8588 102.612 68.3826 105.094 64.2741C106.029 62.7275 106.853 61.4979 107.549 60.4592C110.116 56.63 110.945 55.3933 109.149 50.4253ZM155.178 80.3764L155.178 80.3764C152.839 79.275 149.78 77.8339 145.829 75.9275C141.863 77.1966 117.901 97.1706 114.316 101.454C115.974 102.703 120.194 104.309 124.415 105.915C128.838 107.598 133.262 109.281 134.736 110.554C137.616 113.042 149.376 126.596 155.443 133.998C161.51 141.399 173.844 152.012 175.468 153.178C175.506 153.205 175.544 153.232 175.581 153.259L175.671 153.324C175.781 153.403 175.888 153.48 175.993 153.556L175.994 153.557L175.994 153.557C178.767 155.563 179.776 156.292 180.098 152.2C180.584 146.018 177.175 124.848 173.659 112.285C170.143 99.722 162.788 84.3081 161.239 83.359C160.333 82.8042 158.471 81.927 155.179 80.377L155.179 80.3768L155.178 80.3764ZM140.381 43.438C140.826 44.2451 141.498 46.3753 138.34 47.5671C139.487 47.5617 140.379 47.1337 141.17 46.7542C141.648 46.5248 142.089 46.3131 142.527 46.2234C143.262 46.0728 143.778 46.2176 143.999 46.2901C143.924 46.0698 143.807 45.5554 143.847 45.1874C143.9 44.6873 144.046 44.5406 144.247 44.3393L144.248 44.3382C144.26 44.3265 144.272 44.3147 144.284 44.3026C143.668 43.7905 141.85 42.9162 140.381 43.438ZM136.268 44.9285C136.587 44.927 137.004 44.9251 137.3 45.2179C137.155 45.66 136.43 47.1046 135.102 47.288C134 47.4402 132.819 46.6366 132.3 45.7562C132.667 45.6809 133.108 45.6053 133.329 45.6043C133.405 46.1189 134.217 46.8441 134.953 46.7737C135.762 46.6964 136.788 45.956 136.268 44.9285ZM101.04 109.829C99.5887 110.975 98.3727 111.992 97.3141 112.878L97.3139 112.879C93.2075 116.315 91.4705 117.769 87.5384 117.027C87.0067 113.425 88.889 106.943 91.0021 102.593C91.672 101.214 92.684 98.672 93.9468 95.5005L93.9468 95.5003L93.947 95.5001C96.6673 88.668 100.551 78.9131 104.687 71.5588C110.742 60.7902 120.122 53.0223 120.858 53.0189C123.883 54.9174 125.943 54.9077 126.529 54.4636C126.479 54.4515 126.424 54.4456 126.364 54.4393C126.069 54.4084 125.682 54.3677 125.495 53.5121C125.269 52.4833 125.623 49.5391 127.314 49.3105C129.005 49.082 131.443 51.2039 131.087 53.7803C133.611 55.4281 135.378 53.651 136.917 52.104C137.493 51.5252 138.036 50.9786 138.576 50.6557C140.507 49.4986 142.097 48.5794 143.937 48.8651C144.281 52.9266 143.375 55.7917 142.678 57.9942C142.429 58.7825 142.206 59.4859 142.077 60.129C140.352 68.7439 136.923 74.8657 130.335 81.7378C120.012 92.5042 109.103 103.465 101.04 109.829ZM80.481 118.017C82.0313 119.186 84.0181 119.324 85.0346 116.451C85.3882 115.451 85.8047 113.87 86.2823 112.057L86.2824 112.056L86.2826 112.056L86.2827 112.055C87.1781 108.656 88.2881 104.442 89.6003 101.717C90.9845 98.8411 88.7124 100.617 87.8348 101.725C86.9572 102.832 82.9395 108.883 81.4071 111.539C81.1315 112.016 80.8273 112.465 80.5356 112.895L80.5355 112.895C79.3298 114.672 78.3397 116.131 80.481 118.017ZM94.2353 117.585C92.0705 120.302 88.3515 123.105 86.7626 124.167C85.7289 123.362 86.1628 121.742 87.9231 120.63C89.6834 119.518 93.4987 117.367 93.8658 117.218C94.2329 117.07 94.2332 117.143 94.2353 117.585ZM80.305 127.581C80.421 127.227 81.4508 126.153 81.9147 125.734C82.2867 126.615 83.6163 127.786 84.2797 128.077C84.0614 128.593 83.2567 129.553 82.5964 129.924C81.9336 129.78 80.2345 128.243 80.305 127.581ZM73.5889 122.904C73.7044 122.433 74.8057 120.937 75.342 120.248C75.342 120.248 76.0841 121.642 76.8964 122.3C77.7087 122.958 78.2985 123.25 79.0359 123.614C78.8169 123.983 77.8664 125.238 77.0597 125.757C75.0714 125.325 74.0344 123.785 73.5889 122.904ZM71.471 126.224C70.9825 126.619 69.962 127.585 69.7887 128.292C70.5292 129.318 72.0805 130.709 73.0378 130.925C73.77 130.186 74.2825 129.669 74.574 129.079C73.7621 128.494 72.3593 127.397 71.471 126.224ZM77.4526 131.125C77.0618 131.47 76.1784 132.367 76.0631 132.897C76.2137 133.632 77.7643 134.875 78.3535 135.02C78.8536 135.142 79.5992 133.984 79.7436 133.395C79.5579 133.272 79.369 133.166 79.1823 133.061C78.479 132.665 77.8068 132.286 77.4526 131.125ZM72.6756 139.373C72.8147 139.478 72.9494 139.58 73.0787 139.679C72.8608 140.268 72.4703 140.662 72.4215 140.712C70.8004 140.131 67.4052 137.719 65.9223 135.225C66.2723 134.576 66.603 133.971 66.7246 133.75C67.9691 135.802 70.7494 137.911 72.6754 139.372L72.6756 139.373Z" fill="#F47D20"/>
<defs>
<linearGradient id="paint0_linear_102_5" x1="96" y1="1.04581" x2="96" y2="193.046" gradientUnits="userSpaceOnUse">
<stop/>
<stop offset="1" stop-color="#4E6F98"/>
</linearGradient>
</defs>
</svg>
